
<svg width="32px" height="39px" viewBox="0 0 32 39" version="1.1" xmlns="http://www.w3.org/2000/svg" xmlns:xlink="http://www.w3.org/1999/xlink">
    <defs>
        <linearGradient x1="15.3456362%" y1="10.047332%" x2="30.114035%" y2="94.8159646%" id="linearGradient-1">
            <stop stop-color="#DE124C" offset="0%"></stop>
            <stop stop-color="#FC4E36" offset="35.0547754%"></stop>
            <stop stop-color="#FC4E36" offset="65.8783784%"></stop>
            <stop stop-color="#FF8C31" offset="100%"></stop>
        </linearGradient>
        <path d="M0.834629035,5.21487071 L0.951019905,5.22324633 C1.02874837,5.23450801 1.1063961,5.25731392 1.18186415,5.29279427 L1.2931691,5.35566189 L15.8650558,15.0571211 L15.9434726,15.1186837 C16.2070394,15.3616785 16.2070264,15.7837407 15.9433034,16.0267355 L15.8648405,16.0882981 L13.5364042,17.6378621 L13.4438897,17.6886324 C13.2845062,17.7591466 13.1022143,17.7591466 12.9428308,17.6886324 L12.8503163,17.6378621 L4.8504067,12.3136307 L4.76643214,12.2663383 C4.39436887,12.0924311 3.95152731,12.3314427 3.89413538,12.7393209 L3.88790311,12.8292192 L3.88790311,38.181103 L3.88076242,38.2772337 C3.81976286,38.6813327 3.37955158,38.9171806 3.00954911,38.7440214 L2.9256148,38.6966915 L1.72006345,37.894354 L1.53495071,37.7631113 C0.632085953,37.0823004 0.0730148429,36.0386976 0.00665776961,34.9098834 L-1.98951966e-13,34.6830666 L-1.98951966e-13,6.04863864 C-1.98951966e-13,5.55909868 0.40192221,5.21487071 0.834629035,5.21487071 Z M8.07008992,18.8115525 L8.15680284,18.817883 C8.21470563,18.8262922 8.27254115,18.8432318 8.32877554,18.8696167 L8.41173456,18.9163924 L11.0598573,20.6795112 L11.1401745,20.7431465 C11.239182,20.8359429 11.305005,20.9589259 11.3273739,21.0927684 L11.3358424,21.1948844 L11.3358424,36.4179842 L11.3273739,36.5201012 C11.305005,36.6539477 11.239182,36.7769506 11.1401745,36.8698466 L11.0598573,36.9335726 L8.41173456,38.6964762 L8.32771975,38.7438061 C7.95549312,38.9178533 7.51264067,38.6786877 7.45524802,38.2707883 L7.4490157,38.1808877 L7.4490157,19.4319809 C7.4490157,19.0677321 7.74803549,18.8115525 8.07008992,18.8115525 Z M30.6705181,19.4132518 L30.7575676,19.4194921 C31.0125574,19.4561418 31.2360074,19.6512832 31.2825149,19.9267623 L31.291377,20.0336802 L31.291377,21.398106 L31.2847214,21.6249249 C31.2183854,22.7537602 30.6594832,23.7975319 29.7566394,24.4783638 L29.5715289,24.6096087 L15.860535,33.7380004 L15.7765202,33.7852901 C15.4042935,33.9591739 14.9614411,33.7199974 14.9040484,33.3120973 L14.8978161,33.2221967 L14.898462,30.1196242 L14.9069465,30.0175081 C14.9293552,29.8836656 14.9952818,29.7606826 15.0943292,29.6678863 L15.1746624,29.604251 L30.3290887,19.5180917 C30.4373731,19.4459739 30.5553449,19.4132518 30.6705181,19.4132518 Z M5.33176614,9.09494702e-13 L5.57856633,0.00911398477 C6.15350808,0.0487822469 6.71984022,0.21714601 7.23279281,0.511673037 L7.44923098,0.645615805 L28.8505661,14.8831773 L28.9429944,14.954075 C29.3149207,15.2822303 29.315084,15.8692301 28.9432042,16.1975471 L28.8507814,16.268485 L15.8596739,24.9157326 L15.7756993,24.9630249 C15.403636,25.1369312 14.9607945,24.897908 14.9034026,24.4898648 L14.8971703,24.3999288 L14.8978161,21.2952035 L14.9062857,21.1930127 C14.9286585,21.0591104 14.9945014,20.9362112 15.0936086,20.8434507 L15.1740165,20.7798303 L22.2239086,16.0878675 L22.3023714,16.0263508 C22.5660934,15.7835101 22.5660934,15.361448 22.3023714,15.118299 L22.2239086,15.0566906 L2.56373412,1.96935425 L2.48600601,1.90852146 C2.20106364,1.64725643 2.22708047,1.18298955 2.53951867,0.955096851 L2.62358113,0.903302407 L3.54582792,0.428186007 L3.78448227,0.315353857 C4.18672081,0.141745173 4.61015754,0.0402825369 5.03666966,0.00978914226 L5.29280099,9.09494702e-13 L5.33176614,9.09494702e-13 Z M28.4602475,5.32781947 L28.6558355,5.33534743 C29.16884,5.37547611 29.6129315,5.5758743 29.9783803,5.93261872 L29.9783803,5.93261872 L30.1077257,6.06974528 C30.4326626,6.44505688 30.5975261,6.89709866 30.5975261,7.41636424 L30.5975261,7.41636424 L30.5898075,7.60617619 C30.5486665,8.10415611 30.3432607,8.53625145 29.9783803,8.89280489 L29.9783803,8.89280489 L29.8376556,9.01924766 C29.452628,9.33684422 28.9899493,9.49760414 28.4602475,9.49760414 L28.4602475,9.49760414 L28.2647788,9.49007619 C27.7520339,9.44994751 27.307753,9.24954932 26.9421147,8.89280489 L26.9421147,8.89280489 L26.8127766,8.75557519 C26.4878771,8.38028716 26.323182,7.93066442 26.323182,7.41636424 L26.323182,7.41636424 L26.3308933,7.22480933 C26.371997,6.72249824 26.5772343,6.28859924 26.9421147,5.93261872 C27.3534577,5.53128124 27.864333,5.32781947 28.4602475,5.32781947 L28.4602475,5.32781947 Z M28.4602475,5.73839545 L28.2838974,5.74593026 C27.8805842,5.78107314 27.5348323,5.93901047 27.2543518,6.21686363 L27.2543518,6.21686363 L27.141558,6.33995056 C26.8956888,6.63645318 26.7711836,6.99770458 26.7711836,7.41636424 L26.7711836,7.41636424 L26.778858,7.59038795 C26.8146523,7.98848298 26.975523,8.33046513 27.2586144,8.60813029 C27.5817211,8.9258916 27.9858177,9.08702817 28.4602475,9.08702817 L28.4602475,9.08702817 L28.6348414,9.07948371 C29.0344393,9.04429677 29.3791889,8.88617144 29.6620938,8.60813029 L29.6620938,8.60813029 L29.7759182,8.48521708 C30.0239904,8.18934307 30.1493114,7.83032408 30.1493114,7.41636424 L30.1493114,7.41636424 L30.141707,7.24061586 C30.106239,6.83879035 29.9468369,6.49509277 29.6663564,6.21686363 L29.6663564,6.21686363 L29.5421763,6.10513388 C29.2432012,5.86160114 28.8800358,5.73839545 28.4602475,5.73839545 L28.4602475,5.73839545 Z M28.6644271,6.43472027 L28.7621982,6.44197234 C29.0494208,6.48496421 29.277174,6.71439169 29.3198525,7.00375471 L29.3270517,7.10225535 L29.3270517,7.13276388 L29.3202557,7.22856262 C29.2986796,7.37951949 29.2265522,7.51780522 29.1156931,7.62139108 L29.0254712,7.69223004 L28.9911571,7.71478916 L29.0116177,7.75088375 L29.0775519,7.86732834 C29.1388569,7.97593696 29.1867347,8.06177506 29.2253285,8.13147887 L29.260981,8.19605038 L29.2894074,8.24745294 L29.3144769,8.29208777 L28.7498927,8.29187292 L28.4819869,7.80051381 L28.1974569,7.80051381 L28.1974569,8.2961699 L27.7127968,8.2961699 L27.7125836,6.43472027 L28.6644271,6.43472027 Z M28.5384666,6.82230742 L28.2010801,6.82230742 L28.2010801,7.41271181 L28.5384666,7.41271181 L28.6054774,7.40490647 C28.7131117,7.37938457 28.7980348,7.29377705 28.8233527,7.18527529 L28.8310956,7.11772446 L28.8233527,7.05008218 C28.7929713,6.91969968 28.6767583,6.82230742 28.5384666,6.82230742 Z" id="path-2"></path>
    </defs>
    <g id="Symbols" stroke="none" stroke-width="1" fill="none" fill-rule="evenodd">
        <g id="Nav_menu_small" transform="translate(-22.000000, -34.000000)">
            <g id="Logo" transform="translate(22.000000, 34.000000)">
                <mask id="mask-3" fill="white">
                    <use xlink:href="#path-2"></use>
                </mask>
                <use id="Combined-Shape" fill="url(#linearGradient-1)" xlink:href="#path-2"></use>
            </g>
        </g>
    </g>
</svg>